<svg width="9" height="16" viewBox="0 0 9 16" fill="none" xmlns="http://www.w3.org/2000/svg">
<g clip-path="url(#clip0_1_267)">
<path d="M2.34603 8.00598L8.67617 14.2079C8.89148 14.4188 8.99483 14.6652 8.98794 14.947C8.98105 15.2288 8.86909 15.4752 8.65378 15.6862C8.43847 15.8971 8.18699 16.0034 7.89933 16.0034C7.61168 16.0034 7.36191 15.8988 7.14488 15.6862L0.516746 9.20754C0.344498 9.03878 0.215311 8.84808 0.129187 8.63714C0.0430622 8.42619 0 8.21524 0 8.00429C0 7.79334 0.0430622 7.58239 0.129187 7.37145C0.215311 7.1605 0.344498 6.9698 0.516746 6.80104L7.14833 0.305525C7.36364 0.094577 7.61856 -0.00667811 7.91311 7.22302e-05C8.20766 0.00682257 8.46258 0.116516 8.6779 0.327464C8.89321 0.538412 9.00172 0.7848 9.00172 1.06663C9.00172 1.34845 8.89493 1.59315 8.6779 1.80579L2.34603 8.00598Z" fill="#333333"/>
</g>
<defs>
<clipPath id="clip0_1_267">
<rect width="9" height="16" fill="white"/>
</clipPath>
</defs>
</svg>
